<svg width="20" height="20" viewBox="0 0 20 20" fill="none" xmlns="http://www.w3.org/2000/svg">
<path d="M6.63325 5.83333C6.63325 3.98138 8.14796 2.46666 9.99992 2.46666C11.8519 2.46666 13.3666 3.98138 13.3666 5.83333C13.3666 7.68529 11.8519 9.2 9.99992 9.2C8.14796 9.2 6.63325 7.68529 6.63325 5.83333Z" stroke="black" stroke-width="1.6"/>
<path d="M2.46675 13.1771C2.46675 12.3338 3.16717 11.6333 4.0105 11.6333H15.9897C16.833 11.6333 17.5334 12.3338 17.5334 13.1771V13.8017C17.5334 14.9715 16.788 16.1247 15.4507 16.9775C14.1211 17.8253 12.2504 18.3667 10.0001 18.3667C7.74974 18.3667 5.87904 17.8253 4.54949 16.9775C3.21219 16.1247 2.46675 14.9715 2.46675 13.8017V13.1771Z" stroke="black" stroke-width="1.6"/>
</svg>
