<svg width="18" height="18" viewBox="0 0 18 18" fill="none" xmlns="http://www.w3.org/2000/svg">
<path fill-rule="evenodd" clip-rule="evenodd" d="M12.6948 4.9252C11.7431 4.03325 10.5319 3.5788 9.18392 3.5788H9.18564C6.79343 3.5788 4.76892 5.1626 4.0465 7.28987L4.04474 7.28854V7.28985C3.66176 8.39876 3.66176 9.60035 4.04474 10.7093L4.04467 10.7093C4.7671 12.8366 6.79161 14.4195 9.18381 14.4195C10.418 14.4195 11.4692 14.1014 12.2916 13.5623V13.5572C12.7682 13.2498 13.1763 12.8508 13.4912 12.3845C13.8062 11.9182 14.0214 11.3942 14.124 10.8441H9.18127V7.36279H17.833C17.9449 7.9705 18.0008 8.58683 18 9.20434L17.9974 9.20264C17.9974 11.9412 16.9955 14.2491 15.2591 15.8159H15.2572L15.2617 15.8193C13.7424 17.1937 11.6634 17.9992 9.18381 17.9992C7.4812 17.9998 5.81195 17.5364 4.36263 16.6608C2.9133 15.7852 1.741 14.5319 0.976746 13.0409V13.0407C0.334465 11.7864 0 10.4025 0 8.99913C0 7.59572 0.334493 6.21172 0.976825 4.9574H0.978586C1.74304 3.46664 2.91541 2.21354 4.3647 1.33811C5.814 0.462668 7.48315 -0.000619949 9.18564 0C11.6592 0 13.7382 0.891094 15.3284 2.34347L12.6948 4.9252Z" fill="black"/>
</svg>
