<svg width="24" height="24" viewBox="0 0 24 24" fill="none" xmlns="http://www.w3.org/2000/svg">
<path d="M3.24437 7.71596L3.24444 7.71591L11.9285 0.825036C11.9286 0.824969 11.9287 0.824901 11.9288 0.824834C11.9712 0.791474 12.0292 0.792078 12.0702 0.82451C12.0702 0.824537 12.0703 0.824565 12.0703 0.824593L20.7562 7.71594L20.7562 7.71596C21.667 8.43845 22.2 9.54314 22.2 10.7145V22.4615C22.2 22.8748 21.8691 23.2 21.4722 23.2H15.9722C15.5754 23.2 15.2444 22.8748 15.2444 22.4615V16.9231C15.2444 15.8065 14.3446 14.8923 13.2222 14.8923H10.7778C9.65543 14.8923 8.75556 15.8065 8.75556 16.9231V22.4615C8.75556 22.8748 8.42465 23.2 8.02778 23.2H2.52778C2.13091 23.2 1.8 22.8748 1.8 22.4615V10.7157C1.8 9.54382 2.3336 8.43849 3.24437 7.71596Z" stroke="black" stroke-width="1.6"/>
</svg>
