<svg width="24" height="24" viewBox="0 0 24 24" fill="none" xmlns="http://www.w3.org/2000/svg">
<path d="M21.4722 24H15.9722C15.1283 24 14.4444 23.3114 14.4444 22.4615V16.9231C14.4444 16.2431 13.8975 15.6923 13.2222 15.6923H10.7778C10.1025 15.6923 9.55556 16.2431 9.55556 16.9231V22.4615C9.55556 23.3114 8.87172 24 8.02778 24H2.52778C1.68383 24 1 23.3114 1 22.4615V10.7157C1 9.30092 1.64411 7.96431 2.74717 7.08923L11.4323 0.197538C11.7653 -0.0658461 12.2347 -0.0658461 12.5671 0.197538L21.2534 7.08923C22.3565 7.96431 23 9.30031 23 10.7145V22.4615C23 23.3114 22.3162 24 21.4722 24Z" fill="black"/>
</svg>
