<svg width="24" height="24" viewBox="0 0 24 24" fill="none" xmlns="http://www.w3.org/2000/svg">
<g clip-path="url(#clip0_8110_216391)">
<path d="M12.0001 0.799988C13.2401 0.799988 14.4701 1.03999 15.6101 1.50999C16.7601 1.97999 17.8001 2.66999 18.6701 3.54999C19.5501 4.41999 20.2401 5.45999 20.7201 6.60999C21.2001 7.74999 21.4401 8.97999 21.4401 10.21C21.4301 12.43 20.6301 14.57 19.1701 16.24V16.26C19.1701 16.26 19.1701 16.26 19.1601 16.28L19.1101 16.33C19.1101 16.33 19.0201 16.43 18.9501 16.51C18.8201 16.66 18.6401 16.86 18.4301 17.11C18.0001 17.6 17.4201 18.24 16.8001 18.93C15.5501 20.32 14.1301 21.85 13.3201 22.62V22.64C12.9701 22.99 12.5001 23.19 12.0101 23.2C11.5201 23.2 11.0501 23.01 10.7001 22.67C9.48007 21.5 6.08007 17.7 4.93007 16.41L4.87007 16.34C3.40007 14.64 2.58007 12.46 2.57007 10.21C2.57007 8.96999 2.82007 7.74999 3.29007 6.60999C3.77007 5.46999 4.46007 4.42999 5.34007 3.54999C6.22007 2.67999 7.26007 1.97999 8.40007 1.50999C9.55007 1.03999 10.7701 0.799988 12.0101 0.799988H12.0001Z" stroke="black" stroke-width="1.6"/>
<path d="M12 6.67999C12.89 6.67999 13.72 7.02999 14.34 7.64999C14.97 8.27999 15.31 9.10999 15.32 9.98999C15.32 10.88 14.97 11.71 14.34 12.33C13.71 12.96 12.88 13.3 12 13.3C11.11 13.3 10.28 12.95 9.64997 12.33C9.01997 11.7 8.67997 10.87 8.66997 9.98999C8.66997 9.09999 9.01997 8.26999 9.64997 7.64999C10.28 7.01999 11.11 6.67999 12 6.67999ZM12 5.07999C10.7 5.07999 9.44997 5.59999 8.52997 6.51999C7.60997 7.43999 7.08997 8.68999 7.08997 9.98999C7.08997 11.3 7.60997 12.54 8.52997 13.47C9.44997 14.39 10.7 14.91 12 14.91C13.3 14.91 14.55 14.39 15.47 13.47C16.39 12.55 16.91 11.3 16.91 9.99999C16.91 8.68999 16.39 7.44999 15.47 6.51999C14.55 5.59999 13.3 5.07999 12 5.07999Z" fill="black"/>
</g>
<defs>
<clipPath id="clip0_8110_216391">
<rect width="24" height="24" fill="white"/>
</clipPath>
</defs>
</svg>
