<svg width="24" height="24" viewBox="0 0 24 24" fill="none" xmlns="http://www.w3.org/2000/svg">
<g clip-path="url(#clip0_8110_216390)">
<path d="M12 1.95453e-05C10.6557 -0.00260699 9.32414 0.25951 8.08132 0.771386C6.8385 1.28326 5.70884 2.03486 4.7569 2.98322C3.80497 3.93157 3.04944 5.05809 2.53349 6.29836C2.01755 7.53864 1.75131 8.86836 1.75 10.2115C1.76066 12.6569 2.64755 15.0176 4.25 16.866C5.31 18.055 8.85 22.0316 10.13 23.2506C10.6343 23.7304 11.3036 23.9986 12 24C12.7033 23.9852 13.3736 23.6987 13.87 23.2007C15.55 21.612 19.62 16.9759 19.79 16.766C21.3657 14.944 22.2381 12.6195 22.25 10.2115C22.2487 8.86836 21.9825 7.53864 21.4665 6.29836C20.9506 5.05809 20.195 3.93157 19.2431 2.98322C18.2912 2.03486 17.1615 1.28326 15.9187 0.771386C14.6759 0.25951 13.3443 -0.00260699 12 1.95453e-05ZM12 5.87512C13.0919 5.87776 14.1383 6.31231 14.9104 7.08375C15.6824 7.85518 16.1174 8.90072 16.12 9.99169C16.1174 11.0827 15.6824 12.1282 14.9104 12.8996C14.1383 13.6711 13.0919 14.1056 12 14.1083C10.9081 14.1056 9.86172 13.6711 9.08964 12.8996C8.31756 12.1282 7.88264 11.0827 7.88 9.99169C7.88264 8.90072 8.31756 7.85518 9.08964 7.08375C9.86172 6.31231 10.9081 5.87776 12 5.87512Z" fill="black"/>
</g>
<defs>
<clipPath id="clip0_8110_216390">
<rect width="24" height="24" fill="white"/>
</clipPath>
</defs>
</svg>
